<?xml version="1.0" encoding="UTF-8"?>
<svg id="_喇뒨쏛_2" data-name="喇뒨쏛 2" xmlns="http://www.w3.org/2000/svg" viewBox="0 0 277.74 201.45">
  <defs>
    <style>
      .cls-1 {
        fill: #8d7051;
      }

      .cls-2 {
        fill: #fff;
      }

      .cls-3 {
        fill: #bac7e5;
      }
    </style>
  </defs>
  <g id="_喇뒨쏛_1-2" data-name="喇뒨쏛 1">
    <g>
      <g>
        <path class="cls-3" d="M183.99,96.04C193.55,43.87,142.96,0,92.34,0S-6.32,43.46.68,96.04c5.15,38.69,66.89,50.66,93.41,49.75,24.25-.83,81.89-6,89.9-49.75Z"/>
        <ellipse class="cls-2" cx="51.18" cy="55.6" rx="5.71" ry="3.79" transform="translate(-20 80.98) rotate(-67)"/>
        <ellipse class="cls-2" cx="71.41" cy="67.46" rx="5.71" ry="3.79" transform="translate(-18.59 106.84) rotate(-67)"/>
      </g>
      <g>
        <path class="cls-1" d="M276.57,151.65c9.56-52.17-41.04-96.04-91.65-96.04s-98.66,43.46-91.65,96.04c5.15,38.69,66.89,50.66,93.41,49.75,24.25-.83,81.89-6,89.9-49.75Z"/>
        <ellipse class="cls-2" cx="191.19" cy="150.49" rx="3.79" ry="5.71"/>
        <ellipse class="cls-2" cx="212.35" cy="150.44" rx="3.79" ry="5.71"/>
      </g>
    </g>
  </g>
</svg>